<?xml version="1.0" encoding="utf-8"?>
<!-- Generator: Adobe Illustrator 28.1.0, SVG Export Plug-In . SVG Version: 6.00 Build 0)  -->
<svg version="1.1" id="Layer_1" xmlns="http://www.w3.org/2000/svg" xmlns:xlink="http://www.w3.org/1999/xlink" x="0px" y="0px"
	 viewBox="0 0 1617.1 1997.2" style="enable-background:new 0 0 1617.1 1997.2;" xml:space="preserve">
<style type="text/css">
	.st0{fill:#AC92A6;}
	.st1{fill:#9C8396;}
	.st2{fill:#6972C9;}
	.st3{fill:#563635;}
	.st4{fill:#186E25;}
	.st5{fill:#996643;}
	.st6{fill:#166322;}
	.st7{fill:#DA7422;}
	.st8{fill:#DEAC47;}
	.st9{fill:#AB5E1F;}
	.st10{fill:#B8641F;}
	.st11{fill:#E8D4CF;}
	.st12{fill:#E8D1CF;}
	.st13{fill:#D6AAA7;}
	.st14{fill:#E8CFCF;}
	.st15{opacity:0.5;fill:#D6AAA7;enable-background:new    ;}
	.st16{fill:#E04138;}
	.st17{fill:#FFFFFF;}
	.st18{fill:#A8A19B;}
	.st19{fill:#383635;}
	.st20{fill:#472C2B;}
	.st21{fill:#000DFF;}
	.st22{fill:#1E28D9;}
	.st23{fill:#3138B0;}
	.st24{fill:#383D94;}
	.st25{fill:#383B75;}
	.st26{fill:#2E2F4D;}
	.st27{fill:#FF000D;}
	.st28{fill:#F5390F;}
	.st29{fill:#FF5500;}
	.st30{fill:#FF6F00;}
	.st31{fill:#FF9900;}
	.st32{fill:#FFBB00;}
	.st33{fill:#666460;}
	.st34{fill:#FFFDFA;}
	.st35{fill:#DE9547;}
</style>
<g id="Layer_7">
	<path class="st0" d="M1562.3,1705.3c-76.7,293.9-766.7,272.5-766.7,272.5c-400.1,15.2-657.4-23.3-726.3-287.3l0,0
		c-30.8-118-16.6-242.8,40-351.7l76-146.1c62.1-119.4,72.9-257.5,30.2-384.5l-16.2-48.1c-65.3-193.8-4.1-406.4,155.5-540.3l4.5-3.8
		c84.7-71.1,190.7-114.4,302.7-123.7l106.9-8.9c188-15.6,290.5,33.3,498.9,233.7l30,39.1c130.6,208.6,30,216.8,156,417.9
		c100.9,161.2,203.8,251.4,121.6,895.8"/>
	
		<ellipse transform="matrix(0.9993 -3.612046e-02 3.612046e-02 0.9993 -61.6689 33.0531)" class="st1" cx="883.9" cy="1723.3" rx="574.9" ry="115"/>
	<rect x="1172.9" y="523.7" class="st2" width="247" height="247"/>
	<path class="st3" d="M1269.6,596.7h15l34.5,102.5h-13.9l-9.7-31.1h-37.3l-9.8,31.1h-13.3L1269.6,596.7L1269.6,596.7z M1261.7,657.4
		h30.6l-4.8-15.5c-3.8-11.4-7-22.7-10.3-34.5h-0.6c-3.1,11.9-6.4,23.1-10,34.5L1261.7,657.4L1261.7,657.4z"/>
	<path class="st3" d="M1330.4,599.2c0-5,3.6-8.4,8.6-8.4s8.6,3.4,8.6,8.4s-3.6,8.4-8.6,8.4S1330.4,604.3,1330.4,599.2z
		 M1332.5,623.2h13v76h-13V623.2z"/>
	<rect x="91.5" y="953.8" class="st2" width="247" height="247"/>
	<path class="st3" d="M152.8,1026.8H182c23,0,38.6,7.7,38.6,30.2s-15.5,31.7-38,31.7h-16.7v40.6h-13.1L152.8,1026.8L152.8,1026.8z
		 M181.1,1078.1c17.8,0,26.4-6.6,26.4-21.1s-9.1-19.5-27-19.5h-14.5v40.6H181.1L181.1,1078.1z"/>
	<path class="st3" d="M230.1,1120.3l5.9-7.5c6.6,5.5,13.4,8.3,22.8,8.3c10,0,14.9-5.2,14.9-11.7c0-7.8-8.4-11.1-17-14.2
		c-11.4-4.1-22.4-9.5-22.4-22s9.7-21.6,26.3-21.6c9.5,0,17.7,3.6,23.6,8.6l-5.9,7.5c-5.3-3.9-10.8-6.1-17.5-6.1
		c-9.7,0-13.9,5.3-13.9,10.9c0,6.9,6.6,9.7,16.1,13c11.9,4.2,23.3,9.4,23.3,23.1c0,12.3-9.9,22.7-27.8,22.7
		C247.4,1131.2,237.2,1127.2,230.1,1120.3L230.1,1120.3z"/>
</g>
<g id="Layer_8">
	<path class="st4" d="M1110.2,1382.4c-22.7-16.1-12-66.3-12-66.3c0-22.9,18.6-41.5,41.5-41.5l0,0c22.9,0,26.2,26,40.9,12.6
		l0.6,115.9c0,22.9-18.6,41.5-41.5,41.5l0,0C1139.7,1388.1,1128.9,1395.6,1110.2,1382.4z"/>
	<path class="st4" d="M1180.7,1407.2v-240c0-22.9,18.6-41.5,41.5-41.5l0,0c22.9,0,41.5,18.6,41.5,41.5v240
		c44.1,44.1-18.6,41.5-41.5,41.5l0,0C1199.2,1448.7,1146.7,1461.6,1180.7,1407.2z"/>
	<path class="st4" d="M1263.7,1407.2v-137c7.7,11.4,18.6-30.5,41.5-30.5l0,0c22.9,0,41.5,18.6,41.5,41.5c0,0,14.7,71.9-7.5,85.5
		c-53.5,32.8-33.3,95.8-34,82l0,0C1282.2,1448.7,1263.7,1430.1,1263.7,1407.2z"/>
	<path class="st5" d="M1127.8,1435.3H1352c8.4,0,15.3,6.9,15.3,15.3v240.2c0,8-6.5,14.5-14.5,14.5h-219.5c-25.4,0-46-20.6-46-46
		v-183.5C1087.3,1453.5,1105.4,1435.3,1127.8,1435.3L1127.8,1435.3z"/>
	<path class="st6" d="M1294.4,1241.7L1294.4,1241.7c3.6,0,6.5,2.9,6.5,6.5v184.6c0,1.4-1.1,2.5-2.5,2.5h-4.1c-1.4,0-2.5-1.1-2.5-2.5
		v-188.7C1291.9,1242.8,1293,1241.7,1294.4,1241.7L1294.4,1241.7z"/>
	<path class="st6" d="M1219.9,1125.7h4.5c1.8,0,3.3,1.5,3.3,3.3V1432c0,1.8-1.5,3.3-3.3,3.3h-4.5c-1.8,0-3.3-1.5-3.3-3.3V1129
		C1216.7,1127.2,1218.1,1125.7,1219.9,1125.7z"/>
	<path class="st6" d="M1156.4,1286h14v137.9c0,6.3-5.1,11.4-11.4,11.4h-2.6V1286L1156.4,1286L1156.4,1286z"/>
	<path class="st6" d="M1102.9,897.3c-38.2,16.7,17.9-7.5-73.8,69.2c-11.5,9.6-37.8,35.4-39.8,50.2"/>
	<path class="st6" d="M1085.3,986.4c-6.4,13.6-22.1,12.8-47.8,52.1c-14.6,22.3-30.4,17.7-32.5,20.2c-8,9.7,0.7,4.1-11.4,7.5"/>
	<path class="st6" d="M378.8,1342.7c11.8-0.1,2.5-0.1,11.2,7.9c22.7,20.9,47.3,57.1,60.7,87.8"/>
	<ellipse class="st5" cx="830.2" cy="375" rx="169.3" ry="167"/>
	<path class="st4" d="M723.3,204.6c-1.7,1.1-3.4,2.2-5.1,3.3c-59,39.2-90.8,103.3-90.7,168.3l208.7-6.4L723.3,204.6z"/>
	<path class="st7" d="M835.9,369.2L835.9,369.2C835.9,369.2,907.8,474.5,835.9,369.2z"/>
	<path class="st7" d="M716.4,194.1c59.1,86.6,96.6,141.5,119.5,175.1l43-209C825,151.8,767,162.4,716.4,194.1L716.4,194.1z"/>
</g>
<g id="Layer_2_00000027590176464136301800000001615312282288744614_">
	<path class="st8" d="M557.5,794.3C561.2,677,587,677.8,622,670.9c58.5-11.5,44.6,59.7,44.6,119.3s-58.9,136-94.6,136
		C536.4,903.7,555.6,853.9,557.5,794.3L557.5,794.3z"/>
	<path class="st8" d="M546.2,926.3c7.1-95.6,14.6-156.7,83.3-108.7c56.7,39.6,125.2,62.5,125.2,139.5s-56.1,139.5-125.2,139.5
		C580.7,1064.2,541.1,995.4,546.2,926.3z"/>
	<path class="st8" d="M860.8,774c0-58.5,27.2-136.1,65-125.8c43.8,11.9,65.3,66.8,56.4,155.8c-6.4,63.7,34.9,105.3-36.4,114.3
		C906.8,923,860.8,832.4,860.8,774L860.8,774z"/>
	<ellipse class="st8" cx="897" cy="935.8" rx="101.4" ry="141.5"/>
</g>
<g id="Layer_3">
	
		<rect x="928.3" y="1039.7" transform="matrix(0.9253 -0.3791 0.3791 0.9253 -345.1784 454.4452)" class="st7" width="106" height="128"/>
	<ellipse class="st7" cx="946.5" cy="1057" rx="68.5" ry="67.5"/>
	<ellipse class="st7" cx="869.6" cy="1169.8" rx="81.5" ry="85"/>
	<ellipse class="st7" cx="869.6" cy="1169.8" rx="81.5" ry="85"/>
	
		<rect x="472.2" y="1057.8" transform="matrix(0.248 -0.9688 0.9688 0.248 -672.1749 1358.5797)" class="st7" width="133.6" height="109"/>
	<ellipse transform="matrix(0.33 -0.944 0.944 0.33 -626.5746 1252.4053)" class="st7" cx="569" cy="1067.6" rx="77.5" ry="74.5"/>
	<polygon class="st9" points="759.7,947 546.2,995.6 973.2,995.6 	"/>
	<ellipse class="st7" cx="684" cy="1169.8" rx="103.5" ry="108.5"/>
	<polygon class="st7" points="929.5,1487.8 594.5,1487.8 592,995.6 939,995.6 	"/>
	<path class="st10" d="M916,1239.7c-12.4,0,13.3-47.2,4.9-74.6c-8.7-28.2-1.2-62.2,5.5-55.5c8.8,8.8,24.5,28.9,24.5,58.5
		S928.5,1239.7,916,1239.7z"/>
	<path class="st10" d="M614.8,1248.1c12.4,0-13.3-47.2-4.9-74.6c8.7-28.2,1.2-62.2-5.5-55.5c-8.8,8.8-24.5,28.9-24.5,58.5
		S602.4,1248.1,614.8,1248.1z"/>
</g>
<g id="Layer_1_00000137117064785793855890000001380472301351396533_">
	<ellipse class="st11" cx="769.8" cy="986" rx="61" ry="39"/>
	<path class="st11" d="M824.8,892.6c-17.4,32.4-13.3,48.9-6.9,63.8c2.3,5.4,4.9,10.5,6.9,16.2c9.2,25.9-122.6,24.4-110,0
		c8.4-16.3,11.9-28.9,12.1-40c0.1-8.5-1.7-16.1-4.7-24c-2-5.2-4.5-10.4-7.4-16.1c-4.7-9.3,11.9-15.1,33.6-17.3
		C783.8,871.7,832.9,877.6,824.8,892.6L824.8,892.6z"/>
	<path class="st11" d="M824.8,892.6c-17.4,32.4-13.3,48.9-6.9,63.8c2.3,5.4,4.9,10.5,6.9,16.2c9.2,25.9-122.6,24.4-110,0
		c8.4-16.3,11.9-28.9,12.1-40c0.1-8.5-1.7-16.1-4.7-24c-2-5.2-4.5-10.4-7.4-16.1c-4.7-9.3,11.9-15.1,33.6-17.3
		C783.8,871.7,832.9,877.6,824.8,892.6L824.8,892.6z"/>
	<rect x="760.7" y="940" class="st11" width="18.1" height="7"/>
	
		<ellipse transform="matrix(0.1602 -0.9871 0.9871 0.1602 -925.1181 1621.1541)" class="st12" cx="490.2" cy="1354.2" rx="44.5" ry="44.5"/>
	
		<rect x="410.9" y="1227.8" transform="matrix(0.248 -0.9688 0.9688 0.248 -846.8328 1442.6832)" class="st12" width="190" height="78"/>
	
		<rect x="517.5" y="1309.5" transform="matrix(0.4174 -0.9087 0.9087 0.4174 -937.8466 1316.8391)" class="st12" width="81" height="160.7"/>
	<path class="st13" d="M824.8,892.6c-17.4,32.4-13.3,48.9-6.9,63.8c-9.1,3.5-19.6,5.6-30.6,5.6c-27.1,0-50.4-12.1-60.4-29.3
		c0.1-8.5-1.7-16.1-4.7-24c2-13.7,11.9-25.6,26.2-33.3C783.8,871.7,832.9,877.6,824.8,892.6z"/>
	<ellipse class="st14" cx="765.4" cy="765.8" rx="147.1" ry="170"/>
	<circle class="st14" cx="909.6" cy="798" r="45"/>
	<ellipse class="st14" cx="622.9" cy="808.1" rx="46.5" ry="45"/>
	
		<ellipse transform="matrix(0.2195 -0.9756 0.9756 0.2195 -60.7314 1529.8584)" class="st13" cx="925.8" cy="802.9" rx="13.2" ry="5.4"/>
	
		<ellipse transform="matrix(0.966 -0.2585 0.2585 0.966 -188.1896 184.8757)" class="st13" cx="609" cy="808.1" rx="5.4" ry="13.2"/>
	<ellipse class="st11" cx="1073.9" cy="1345.2" rx="44.5" ry="44.1"/>
	<polygon class="st11" points="1044.8,1362.6 1116.9,1333.2 1038.8,1144.3 966.7,1173.6 	"/>
	<polygon class="st11" points="964.2,1465.3 1099.6,1379.5 1056,1311.9 920.6,1397.7 	"/>
	<path class="st15" d="M1047.1,1164.4c6.2,14.2-50.3,53.6-30.2,130.9c2,7.9-52.3-120.9-50.3-121.7c44.3-17.5,45.2-19.1,72.1-29.8
		C1039.7,1143.5,1038.7,1145.3,1047.1,1164.4L1047.1,1164.4z"/>
	<path class="st15" d="M486.8,1185.4c-4.3,14.9,56.9,46.5,47.1,125.8c-1,8.1,36-126.7,33.9-127.2c-46.2-11.5-47.3-13-75.4-20.1
		C491.5,1163.7,492.6,1165.4,486.8,1185.4z"/>
	<ellipse class="st13" cx="769" cy="817.6" rx="13.2" ry="9.5"/>
	
		<rect x="1006.1" y="1332.3" transform="matrix(0.8416 -0.5401 0.5401 0.8416 -561.2814 766.4822)" class="st15" width="40" height="15.8"/>
	<path class="st15" d="M1002.9,1240.2L1002.9,1240.2c4.1-1.7,8.9,0.3,10.6,4.4l34.1,83.3c1.7,4.1-0.3,8.9-4.4,10.6l0,0
		c-4.1,1.7-8.9-0.3-10.6-4.4l-34.1-83.3C996.8,1246.6,998.8,1241.9,1002.9,1240.2z"/>
	<ellipse class="st14" cx="766.4" cy="813.1" rx="11.7" ry="9.2"/>
	<path class="st16" d="M412.1,1342.6c0,8-9.5,13.3-16,9.4c-9.9-6.1-5-2.4-14.3-9.1c-6.5-4.6-5-1.3,11.2-10.7
		C399.9,1328.3,412.1,1334.6,412.1,1342.6z"/>
	<path class="st16" d="M385.7,1373.9c-7.6,2.5-15.6-4.9-13.9-12.3c2.7-11.2,0.7-5.5,4.2-16.4c2.4-7.6-0.3-5.2,13.6,7.3
		C395.6,1357.9,393.3,1371.4,385.7,1373.9L385.7,1373.9z"/>
	<path class="st16" d="M347.9,1358.5c-4.7-6.5-0.1-16.4,7.4-17c11.5-0.9,5.4-1,16.9-1.1c8-0.1,4.8-1.9-2.8,15.2
		C366.1,1363,352.5,1365,347.9,1358.5L347.9,1358.5z"/>
	<path class="st16" d="M350.8,1317.7c4.7-6.5,15.5-5.2,18.4,1.8c4.4,10.7,2.6,4.9,6.3,15.7c2.5,7.6,3.3,4-15.3,2.1
		C352.2,1336.5,346.1,1324.2,350.8,1317.7z"/>
	<path class="st16" d="M390.5,1307.9c7.6,2.5,9.7,13.2,4,18.1c-8.8,7.5-3.8,4-13,10.8c-6.4,4.8-2.8,4.4-6.7-13.9
		C373.1,1315,382.9,1305.4,390.5,1307.9z"/>
	<path class="st16" d="M1118.1,988.2c0,7.1-8.5,11.9-14.2,8.3c-8.8-5.4-4.4-2.1-12.7-8c-5.8-4.1-4.5-1.2,9.9-9.5
		C1107.3,975.5,1118.1,981.1,1118.1,988.2z"/>
	<path class="st16" d="M1094.7,1016c-6.8,2.2-13.9-4.4-12.3-10.9c2.4-10,0.7-4.9,3.7-14.6c2.1-6.8-0.2-4.6,12.1,6.5
		C1103.5,1001.8,1101.4,1013.9,1094.7,1016L1094.7,1016z"/>
	<path class="st16" d="M1061,1002.3c-4.2-5.8-0.1-14.6,6.6-15.1c10.3-0.8,4.8-0.9,15-1c7.1-0.1,4.3-1.7-2.5,13.5
		C1077.3,1006.3,1065.2,1008.1,1061,1002.3L1061,1002.3z"/>
	<path class="st16" d="M1063.6,966.1c4.2-5.8,13.8-4.6,16.4,1.6c3.9,9.5,2.3,4.3,5.6,14c2.3,6.7,2.9,3.6-13.6,1.8
		C1064.9,982.8,1059.4,971.8,1063.6,966.1L1063.6,966.1z"/>
	<path class="st16" d="M1098.9,957.4c6.8,2.2,8.7,11.7,3.6,16.1c-7.8,6.7-3.4,3.5-11.6,9.6c-5.7,4.2-2.5,3.9-6-12.4
		C1083.4,963.7,1092.2,955.2,1098.9,957.4L1098.9,957.4z"/>
	<path class="st16" d="M1138.5,900.5c0,8.8-10.5,14.6-17.5,10.3c-10.8-6.7-5.5-2.6-15.7-9.9c-7.2-5.1-5.5-1.5,12.3-11.8
		C1125.1,884.7,1138.5,891.7,1138.5,900.5z"/>
	<path class="st16" d="M1109.5,934.8c-8.3,2.7-17.2-5.4-15.2-13.5c3-12.3,0.8-6,4.6-18c2.6-8.4-0.3-5.7,15,8.1
		C1120.4,917.2,1117.9,932.1,1109.5,934.8z"/>
	<path class="st16" d="M1067.9,917.9c-5.2-7.1-0.1-18,8.1-18.6c12.7-1,6-1.1,18.6-1.2c8.8-0.1,5.3-2-3,16.7
		C1088,922.8,1073.1,925,1067.9,917.9L1067.9,917.9z"/>
	<path class="st16" d="M1071.2,873.1c5.2-7.1,17.1-5.7,20.2,2c4.8,11.7,2.9,5.3,6.9,17.3c2.8,8.3,3.6,4.4-16.8,2.3
		C1072.7,893.7,1066,880.2,1071.2,873.1z"/>
	<path class="st16" d="M1114.8,862.3c8.3,2.7,10.7,14.5,4.4,19.9c-9.7,8.2-4.2,4.4-14.3,11.9c-7.1,5.2-3.1,4.8-7.4-15.3
		C1095.6,870.1,1106.4,859.6,1114.8,862.3L1114.8,862.3z"/>
	<path class="st17" d="M292,222.6c5.8,3.1,11.4,6.2,16.9,9.8c2.6,1.7,5.2,3.4,7.9,4.9c1.2,0.7,2.6,1.4,3.7,2.4c1.1,1,2,1.9,3.5,2.3
		c0.7,0.2,2,0.4,2.6-0.3c1.8-1.8-0.5-5.3-1.4-7c-0.2-0.4-0.4-1-0.7-1.7c-0.4-1.2-0.9-2.4-1.3-3.6c-0.8-2.3-1.5-4.6-2.2-6.9
		c-2.9-9.3-5.6-18.6-8-27.9s-5-18.6-7.2-28s-4.3-18.9-6.1-28.5c-1.1-5.4-2-10.8-2.9-16.2c-0.4-2.7-0.7-5.4-1.3-8
		c-0.5-2.5-1.1-5-1.2-7.6c0-1.6-4.9-2.6-4.8-0.6c0.1,2.3,0.5,4.5,1,6.7s0.8,4.5,1.1,6.7c0.7,4.8,1.5,9.5,2.5,14.2
		c1.8,9.5,3.8,18.9,6,28.3s4.6,18.3,7,27.5s4.9,18.7,7.7,27.9c1.6,5.1,3.1,10.1,4.9,15.1c0.5,1.4,1.2,2.7,1.8,4.1
		c0.4,0.8,1.5,2.8,0.7,3.6l2.6-0.3c1.2,0.4,0.9,0.5,0.4,0c-0.2-0.2-0.4-0.4-0.6-0.6c-0.5-0.5-1-0.9-1.6-1.2
		c-1.2-0.9-2.6-1.6-3.9-2.3c-2.6-1.5-5.1-3.1-7.7-4.8c-5.2-3.5-10.7-6.5-16.3-9.4c-0.9-0.5-2.4-1-3.4-0.4
		C290.7,221.3,291.3,222.2,292,222.6L292,222.6L292,222.6z"/>
	<path class="st17" d="M295.8,97.6c3.9-0.8,7.9-1.4,11.8-2.2s7.9-1.6,11.8-2.4c7.7-1.6,15.6-3.2,23.5-3.7c0.8-0.1,1.9-0.4,1.3-1.4
		c-0.5-0.9-2.2-1.4-3.2-1.3c-8.1,0.5-16.2,2.1-24.1,3.7c-4,0.8-8,1.7-12,2.5s-8,1.4-12,2.2c-1,0.2-1.2,1-0.5,1.7
		C293.2,97.4,294.7,97.8,295.8,97.6L295.8,97.6L295.8,97.6z"/>
	<path class="st17" d="M295.4,86.4l-0.5,0.1c-1,0.2-1.2,1-0.5,1.7c0.9,0.8,2.3,1.1,3.4,0.9c1.9-0.3,3.8-0.4,5.6-0.8s3.6-0.6,5.4-0.9
		s3.5-0.6,5.3-0.9s3.6-0.4,5.4-0.8c1-0.2,1.2-1,0.5-1.7c-0.8-0.8-2.3-1.2-3.4-0.9c-1.8,0.4-3.6,0.5-5.4,0.8s-3.5,0.6-5.3,0.9
		s-3.6,0.7-5.4,0.9s-3.8,0.4-5.6,0.8l3,2.6l0.5-0.1c1-0.2,1.2-1,0.5-1.7C298,86.5,296.5,86.1,295.4,86.4L295.4,86.4L295.4,86.4z"/>
	<path class="st17" d="M94.4,198.9c-3.9,5.3-7.8,10.7-11.9,15.9c-1.8,2.3-3.9,4.6-5.6,7c-0.8,1.2-1.5,2.4-2.1,3.7s-1,2.8-1.9,4
		c-0.3,0.4-0.2,0.6,0,1c0.8,1.6,2.3,2.8,3.7,3.9c1.6,1.2,3.2,2.3,4.7,3.6c3.8,3.1,7.7,6,11.5,8.9s7.5,5.9,11.1,9
		c1.6,1.4,3.2,2.9,4.9,4.2c0.9,0.8,2.5,1.7,2.9,2.9c0.5,1.6,5.3,2.3,4.8,0.6c-0.5-1.5-1.9-2.7-3.1-3.7c-1.5-1.2-2.9-2.5-4.4-3.7
		c-3.7-3.2-7.4-6.2-11.3-9.2s-7.7-5.9-11.5-8.9c-1.7-1.3-3.3-2.7-5.1-3.9c-1.5-1-3-2.1-3.8-3.7v1c1.7-2.3,2.2-5.1,3.8-7.4
		c1.7-2.5,3.8-4.8,5.7-7.2c4.1-5.2,8-10.6,11.9-15.9C100.1,199.3,95.4,197.6,94.4,198.9L94.4,198.9L94.4,198.9z"/>
	<path class="st17" d="M163,121.1c-0.4-3.9-0.8-7.8-2-11.6c-0.4-1-1.8-1.5-2.7-1.6c-0.5-0.1-2.4,0-2.1,1c1.3,3.7,1.6,7.7,2,11.6
		c0.1,0.4,0.6,0.8,0.9,1c0.5,0.3,1.2,0.6,1.8,0.6C161.7,122.2,163.1,122.2,163,121.1L163,121.1L163,121.1z"/>
	<path class="st17" d="M155.5,123.4c-1.2-1.2-2.7-2.1-3.9-3.3l0.3,0.3c-0.1-0.1-0.1-0.1-0.2-0.2c-0.4-0.4-0.8-0.7-1.3-0.9
		c-0.6-0.2-1.3-0.4-1.9-0.4c-0.4,0-1,0.1-1.3,0.4c-0.2,0.3-0.3,0.7,0,1c0.7,0.8,1.4,1.5,2.2,2.1c0.7,0.6,1.4,1.1,2.1,1.7
		c0.4,0.4,1.1,0.7,1.6,0.8s1.2,0.2,1.8,0.1c0.4-0.1,0.9-0.2,0.9-0.7S155.8,123.7,155.5,123.4L155.5,123.4L155.5,123.4z"/>
	<path class="st17" d="M174.4,123.3c2.4-2.9,4.4-6.1,6.7-9.1s5.5-5.5,7.9-8.5c1.2-1.5-3.4-3.2-4.5-1.9c-2.5,3-5.5,5.4-7.9,8.5
		s-4.3,6.2-6.7,9.1C168.7,122.9,173.4,124.6,174.4,123.3L174.4,123.3z"/>
	<path class="st17" d="M357.4,457.7c1.2,1.1,2.5,1.9,3.9,2.8c1.2,0.7,2.6,1.2,3.7,2l-0.9-1.4c-0.1,1.2-0.4,2.2-0.2,3.5
		c0.1,1.5,0.5,3,0.8,4.5s0.5,2.9,0.8,4.3c0.2,0.7,0.4,1.4,0.6,2.1c0.3,0.6,0.7,1.2,0.8,1.9c0.2,1.6,5.1,2.5,4.8,0.6
		c-0.1-0.6-0.4-1.1-0.7-1.7c-0.3-0.6-0.5-1.3-0.6-1.9c-0.3-1.4-0.5-2.9-0.8-4.3s-0.6-2.9-0.8-4.3c-0.1-0.6-0.2-1.2-0.1-1.8
		c0.1-0.5,0.2-1,0.3-1.5c0.1-0.7-0.5-1-0.9-1.4c-1-0.8-2.3-1.2-3.4-1.9c-1.2-0.7-2.3-1.4-3.3-2.3c-0.9-0.8-2.3-1.2-3.4-0.9
		C356.8,456.2,356.6,457,357.4,457.7L357.4,457.7L357.4,457.7z"/>
	<path class="st17" d="M94.4,1207.9c9.6,0.9,19.4,0.9,29.1,0.8s19.6-0.3,29.3-0.1c2.7,0.1,5.4,0.1,8.1,0.1c1.3,0,2.6,0,3.9,0
		s2.9-0.2,4.2,0l-2.7-1.6l0.1,0.2c0.5,1.6,5.4,2.3,4.8,0.6l-0.1-0.2c-0.3-1.1-1.8-1.5-2.7-1.6c-2.4-0.3-5-0.1-7.4-0.1
		s-4.7,0-7.1-0.1c-4.8-0.1-9.6-0.2-14.5-0.1c-9.8,0.1-19.6,0.3-29.4,0.1c-5.4-0.1-10.8-0.1-16.2-0.7c-0.7-0.1-2.2-0.1-2.1,1
		C91.9,1207.3,93.7,1207.8,94.4,1207.9L94.4,1207.9L94.4,1207.9z"/>
	<path class="st17" d="M96.7,1216.7c8.7,0,17.4-0.2,26.2-0.3c4.3,0,8.6-0.1,12.8,0.1s8.9,0.7,13.3,0.7c0.8,0,1.9-0.5,1.3-1.4
		s-2.2-1.3-3.2-1.3c-4.4,0-8.9-0.5-13.3-0.7s-8.6-0.2-12.8-0.1c-8.7,0.1-17.4,0.3-26.2,0.3c-0.8,0-1.8,0.5-1.3,1.4
		S95.7,1216.7,96.7,1216.7C96.7,1216.7,96.7,1216.7,96.7,1216.7z"/>
	<path class="st17" d="M79.1,1143.9c0,9.9,0.2,19.8,0.6,29.7c0.2,4.9,0.5,9.9,0.5,14.9s-0.4,10-0.5,15c0,1.9,4.8,2.8,4.8,1.3
		c0-4.9,0.4-9.8,0.5-14.7s-0.2-9.9-0.4-14.9c-0.4-10-0.7-20-0.6-30C83.9,1143.4,79.1,1142.4,79.1,1143.9L79.1,1143.9L79.1,1143.9z"
		/>
	<path class="st17" d="M289.6,1618.3c1,6.7,0.5,13.5,0.5,20.2c0,3.3,0.2,6.6,0.7,9.8c0.2,1.6,0.5,3.1,0.7,4.7c0.2,1.2,0.6,2.6,0,3.8
		l4.8,1.3l0-0.4c0.1-1.8-4.8-2.8-4.8-1.3l0,0.4c-0.1,1.8,4,2.8,4.8,1.3c0.6-1.1,0.3-2.5,0.1-3.7c-0.2-1.5-0.4-3-0.7-4.5
		c-0.5-3.4-0.8-6.8-0.9-10.3c-0.1-6.9,0.5-13.8-0.5-20.7C294.2,1617.3,289.3,1616.4,289.6,1618.3L289.6,1618.3L289.6,1618.3z"/>
	<path class="st17" d="M299.3,1641.2c0.3,2.8,0.3,5.6,0.3,8.5c0,1.4,0,2.8,0.1,4.2s0.3,2.6,0.6,3.9c0.3,1.1,1.9,1.5,2.7,1.6l0.4,0.1
		c0.7,0.1,2.3,0,2.1-1s-1.9-1.5-2.7-1.6l-0.4-0.1l2.7,1.6c-0.3-1.2-0.6-2.4-0.6-3.7c-0.1-1.4-0.1-2.9-0.1-4.3c0-2.8-0.1-5.7-0.3-8.5
		C304,1640.2,299.1,1639.2,299.3,1641.2L299.3,1641.2z"/>
</g>
<g id="Layer_4">
	<path class="st18" d="M523.8,1515.3v-265.8c0-17.7,14.4-32.1,32.1-32.1h427.8c17.7,0,32.1,14.4,32.1,32.1v265.8
		c0,17.7-14.4,32.1-32.1,32.1H555.9C538.2,1547.4,523.8,1533,523.8,1515.3z"/>
	<path class="st17" d="M762.2,1349.9l27,22.2c13.3,10.9,15.2,30.6,4.3,43.9l-19.5,23.8l-50.8-41.8c-13.3-10.9-15.2-30.6-4.3-43.9
		l0,0C729.7,1341,749.1,1339.1,762.2,1349.9z"/>
	<path class="st17" d="M758.6,1372.1l27-22.2c13.1-10.8,32.5-8.9,43.3,4.2h0c10.9,13.3,9,33-4.3,43.9l-50.8,41.8l-19.5-23.8
		C743.4,1402.8,745.3,1383.1,758.6,1372.1z"/>
</g>
<g id="Layer_5">
	<path class="st19" d="M850.9,1757c70.3,7.3,107.7,13.3,140.5-3.9c56.8-29.8,41.9-86.9,0.3-99.5c-33.6-10.2-31.7-12.3-143.3,11.6
		C843.1,1666.3,845,1756.4,850.9,1757L850.9,1757z"/>
	<path class="st3" d="M875.7,1760.7c-77.7,28.9-397.9-125.5-475.3-225.8c-54.5-70.6,26.2-142.8,61.4-130.6
		c299.7,104,319.3,130,462.6,261.1C929.1,1669.7,895.3,1753.4,875.7,1760.7L875.7,1760.7z"/>
	<path class="st3" d="M650.4,1728.9c71,39.5,421-84.9,518.8-181.1c68.8-67.7,3.8-152.9-33.6-144.3c-319.1,73.9-344,98.9-513.7,219.6
		C616.4,1627.1,632.5,1719,650.4,1728.9L650.4,1728.9z"/>
	<path class="st19" d="M662.2,1734.8c-56.1,19.9-85.5,32.5-116,21.6c-52.7-18.9-52.2-77.4-20.7-97.3c25.4-16.1,23.4-17.8,119.8-14.6
		C650,1644.6,666.9,1733.1,662.2,1734.8L662.2,1734.8z"/>
	<path class="st20" d="M877.5,1759.8c-31.2,23.4-123.1,5.9-147.6-24.4c-6.1-7.6,70.5-10.9,80.1-12.3c55.4-8,52.4-9.6,110.8-40.1
		C929.5,1678.6,895.4,1746.4,877.5,1759.8L877.5,1759.8z"/>
	<path class="st20" d="M665,1732.8c-2.3,11.8-20-89.7-20.7-97.5c-1.1-12.9-27.1-38.5-16.1-38.5s20.9,29.1,24.9,37
		C660.5,1649.2,670.7,1703.7,665,1732.8z"/>
	<path class="st20" d="M625.1,1643.8c-8.2-0.9-6.7-13.2-6.7-25.2s4.1-21.8,9.2-21.8s9.2,9.7,9.2,21.8
		C647.1,1633.5,669.9,1648.8,625.1,1643.8z"/>
	<circle class="st20" cx="705.1" cy="783.3" r="14.2"/>
	<circle class="st20" cx="830.8" cy="783.3" r="14.2"/>
	<path class="st17" d="M769.5,881.2c-32.1,1.2-47.3-25.9-47.3-35.6c0-2,88.5-1.6,88.6,0c0.4,7.1-12.2,35.6-41.4,35.6
		C768.5,881.2,770.3,881.1,769.5,881.2L769.5,881.2z"/>
	<rect x="1317.7" y="873" class="st7" width="226.8" height="226.8"/>
	<path class="st20" d="M1369.6,1040.3c0-11.4,1.4-19.7,1.4-30.2c0-6.1-2.8-12-13.4-12.2v-8.1c10.6-0.2,13.4-6.1,13.4-12
		c0-10.6-1.4-18.9-1.4-30.3c0-16.1,5.9-20.8,18.3-20.8h7v7.3h-4.1c-8.4,0-10.6,4.2-10.6,14.2s0.8,17.7,0.8,28.3s-2.5,15.2-9.4,17
		v0.6c6.9,1.9,9.4,7,9.4,17c0,10.6-0.8,18.8-0.8,28.3c0,10,2.2,14.2,10.6,14.2h4.1v7.3h-7
		C1375.6,1061.1,1369.6,1056.4,1369.6,1040.3L1369.6,1040.3z"/>
	<path class="st20" d="M1467.2,1053.7h4.1c8.4,0,10.6-4.2,10.6-14.2s-0.8-17.7-0.8-28.3c0-10,2.5-15.2,9.2-17v-0.6
		c-6.7-1.9-9.2-6.9-9.2-17s0.8-18.8,0.8-28.3c0-10-2.2-14.2-10.6-14.2h-4.1v-7.3h7c12.3,0,18.3,4.7,18.3,20.8
		c0,11.4-1.4,19.7-1.4,30.3c0,5.9,2.8,11.9,13.4,12v8.1c-10.6,0.2-13.4,6.1-13.4,12.2c0,10.5,1.4,18.8,1.4,30.2
		c0,16.1-5.9,20.8-18.3,20.8h-7V1053.7L1467.2,1053.7z"/>
	<rect x="40.1" y="565.6" class="st7" width="226.8" height="226.8"/>
	<path class="st20" d="M53.8,683.2v-10.3l67.1-26.4v11.4l-32.8,12l-20.9,7.8v0.6l20.9,7.8l32.8,12v11.4
		C120.9,709.6,53.8,683.2,53.8,683.2z"/>
	<path class="st20" d="M169.3,619h9.4l-41.6,136h-9.4L169.3,619z"/>
	<path class="st20" d="M186.2,698.2l33-12l20.8-7.8v-0.6l-20.8-7.8l-33-12v-11.4l67.1,26.4v10.3l-67.1,26.4L186.2,698.2L186.2,698.2
		z"/>
	<rect x="59.2" y="1434" class="st7" width="226.8" height="226.8"/>
	<path class="st20" d="M108.5,1486.1h28v7.3h-18.1v119.7h18.1v7.3h-28V1486.1L108.5,1486.1z"/>
	<path class="st20" d="M208.7,1613.2h18.1v-119.7h-18.1v-7.3h28v134.4h-28V1613.2L208.7,1613.2z"/>
	
		<rect x="224.5" y="103.7" transform="matrix(0.625 -0.7806 0.7806 0.625 -133.0942 338.2768)" class="st21" width="122" height="408"/>
	
		<rect x="247.9" y="152.4" transform="matrix(0.625 -0.7806 0.7806 0.625 -138.9468 363.5863)" class="st22" width="122" height="348"/>
	
		<rect x="273.3" y="205.2" transform="matrix(0.625 -0.7806 0.7806 0.625 -145.2838 391.0144)" class="st23" width="122" height="283"/>
	
		<rect x="299.9" y="260.5" transform="matrix(0.625 -0.7806 0.7806 0.625 -151.9105 419.7096)" class="st24" width="122" height="215"/>
	
		<rect x="326.8" y="316.5" transform="matrix(0.625 -0.7806 0.7806 0.625 -158.648 448.8226)" class="st25" width="122" height="146"/>
	
		<rect x="355.3" y="375.8" transform="matrix(0.625 -0.7806 0.7806 0.625 -165.7609 479.6202)" class="st26" width="122" height="73"/>
	<rect x="344.2" y="88.5" transform="matrix(0.9818 -0.19 0.19 0.9818 -48.1926 82.2994)" class="st27" width="122" height="408"/>
	<rect x="349.9" y="148" transform="matrix(0.9818 -0.19 0.19 0.9818 -53.6841 83.9205)" class="st28" width="122" height="348"/>
	<rect x="356.1" y="212.4" transform="matrix(0.9818 -0.19 0.19 0.9818 -59.6338 85.673)" class="st29" width="122" height="283"/>
	<rect x="362.6" y="279.8" transform="matrix(0.9818 -0.19 0.19 0.9818 -65.8561 87.5088)" class="st30" width="122" height="215"/>
	<rect x="369.1" y="348.2" transform="matrix(0.9818 -0.19 0.19 0.9818 -72.1711 89.3711)" class="st31" width="122" height="146"/>
	<rect x="376.1" y="420.5" transform="matrix(0.9818 -0.19 0.19 0.9818 -78.8529 91.3402)" class="st32" width="122" height="73"/>
	
		<ellipse transform="matrix(0.4557 -0.8901 0.8901 0.4557 482.1348 1206.9094)" class="st32" cx="1227.9" cy="209.2" rx="140.5" ry="144"/>
	<path class="st32" d="M1102.6,281.7c-30.2-70.2,51.8-25.7,89.5-6.4s98.3,66.3,47.1,76.4c-25.2,5-65.4,28.5-89.5,6.4
		C1119.4,350.5,1112.7,305.3,1102.6,281.7z"/>
	
		<rect x="1113.5" y="330.5" transform="matrix(0.4557 -0.8901 0.8901 0.4557 290.1558 1218.5343)" class="st33" width="56" height="83"/>
	<path class="st33" d="M1343.8,35.4c0.3,0,0.6-0.5,0.9-0.5C1344.4,34.9,1344.1,35.4,1343.8,35.4L1343.8,35.4z"/>
	<path class="st33" d="M1275.1,9.5c0.3,0,0.6-0.5,0.9-0.5C1275.7,9,1275.4,9.5,1275.1,9.5L1275.1,9.5z"/>
	<path class="st34" d="M1420.7,126.1c0.3,0,0.6-0.5,0.9-0.5C1421.2,125.6,1421,126.1,1420.7,126.1L1420.7,126.1z"/>
	<path class="st34" d="M1061.8,296.5c0.3,0,0.6-0.5,0.9-0.5C1062.4,296,1062.1,296.5,1061.8,296.5L1061.8,296.5z"/>
	<path class="st34" d="M1138.4,327.7c8.2-6.1,16-12.5,23.5-19.5s14.8-14,21.6-21.6c12.9-14.6,23-31.4,32.1-48.5
		c4.7-8.9,9-17.9,12.2-27.4c2.9-8.6,5.4-17.5,5.4-26.6c0-3-0.2-6-0.8-8.9c-0.7-2.7-1.8-5.5-4.1-7.2c-5.5-4.1-12.7,0.3-15.9,5.1
		c-4.5,6.7-4.8,15.6-2.3,23.1c2.7,8.3,8.8,14.7,16.2,19.2c7.8,4.7,16.9,7.6,26,8c4.9,0.2,9.9,0.1,14.8-0.7c4.4-0.6,8.7-2,12.6-4
		c5.8-3.1,12.1-7.9,12.1-15.2c0-2-0.4-3.9-1.1-5.8s-1.7-3.6-3.5-4.4c-3.4-1.5-7.6-0.1-10.6,1.6c-6.6,3.6-11.2,9.6-15.3,15.8
		c-5.6,8.4-10.8,17-16.1,25.6c-11,17.9-22.7,35.2-33.4,53.2c-5.3,8.9-10.4,17.8-15.1,27.1c-2.3,4.5-4.5,9.1-6.4,13.9
		s-3,9.5-4.1,14.4s-2.2,9.5-3.7,14.1c0.1-0.2,0.8-0.3,0.9-0.5c3.1-9.2,4.2-19,7.7-28.2s8.3-18,13.1-26.6
		c9.9-17.7,20.8-34.8,31.8-51.8c5.4-8.5,10.7-17.1,16-25.7c2.7-4.3,5.4-8.7,8.2-12.9c2.1-3.2,4.3-6.5,6.7-9.5s5.3-6.1,8.7-8.2
		c3-1.9,7.6-3.3,11-1.7c1.8,0.8,2.8,2.5,3.4,4.3s1,3.6,1.1,5.5c0.1,3.5-1.4,6.7-3.7,9.3c-6.3,6.8-15.6,9.1-24.5,9.7
		c-4.8,0.3-9.7,0.4-14.4-0.3c-4.3-0.6-8.5-1.9-12.6-3.4c-7.8-3-15.5-7.8-20.4-14.8c-4.7-6.6-6.9-15.1-5.4-23.1
		c0.7-3.5,2.1-6.9,4.3-9.7c1.1-1.4,2.5-2.9,4.2-3.6c1.6-0.7,3.3-0.9,5-0.8c6.4,0.6,8.3,7.5,8.8,12.9c0.7,7.7-0.6,15.4-2.6,22.9
		c-2.5,9.3-6,18.3-10.3,27s-8.7,16.8-13.5,24.9s-9.9,16-15.7,23.4c-5.9,7.7-12.6,14.9-19.6,21.7s-14.1,13.5-21.6,19.7
		c-3.7,3-7.5,6-11.3,8.8C1137.8,328,1138.2,327.9,1138.4,327.7L1138.4,327.7L1138.4,327.7z"/>
</g>
<g id="Layer_6">
	<path class="st8" d="M568.8,754.2c-17.7-28.2,5.9-86.8,66.3-131c84.7-61.9,145.3-41.2,163-13s-19.3,83.2-82.7,123
		C652.1,773,586.4,782.4,568.8,754.2z"/>
	<path class="st35" d="M681.5,763c-2.8,0.3,5.2-6.5,15.8-11.2c8.7-3.8,22-0.6,22,1.6c0,5.9-14,5.4-23.5,6.9
		C687.9,761.6,686.7,762.6,681.5,763z"/>
	<path class="st35" d="M857.8,763c2.8,0.3-5.2-6.5-15.8-11.2c-8.7-3.8-22-0.6-22,1.6c0,5.9,14,5.4,23.5,6.9
		C851.4,761.6,852.7,762.6,857.8,763z"/>
	<path class="st8" d="M975.4,754.2c17.7-28.2,1.8-90.8-62.8-137c-58.1-41.5-148.8-35.2-166.5-7c-17.7,28.2,19.3,83.2,82.7,123
		C892.1,773,957.7,782.4,975.4,754.2L975.4,754.2z"/>
</g>
<g id="Layer_9">
	<path class="st17" d="M669,28.9c0.8,0,1.8-0.5,1.3-1.4s-2.2-1.3-3.2-1.3c-0.8,0-1.8,0.5-1.3,1.4S668,28.9,669,28.9L669,28.9z"/>
	<path class="st17" d="M739.1,566.8c4.3-1.1,9,0.9,12.9,2.4c4.6,1.7,9,4.2,13.1,6.8c2,1.3,3.8,3.1,6,4.2c2.4,1.2,4.8,1,7.3,0.1
		c2.2-0.8,4.4-1.8,6.7-2.4c2.5-0.7,5-1.2,7.5-1.7c10.4-1.9,20.9-2.4,31.5-1.9s21,1.8,31.1,4.1c11.2,2.6,22,6.5,32.7,10.6
		c0.8,0.3,2.5,0.8,3.2,0s-0.7-1.7-1.3-1.9c-9.9-3.9-19.9-7.5-30.1-10.1s-21.2-4.2-32-5c-11-0.8-21.8-0.7-32.7,0.8
		c-5.1,0.7-10.2,1.7-15.2,3.2c-0.6,0.2-6.6,2.7-6.7,2.4c-0.3-0.7,0.8,0.5,0.4,0c-0.1-0.1-0.5-0.4-0.7-0.5c-0.5-0.3-0.9-0.7-1.3-1
		c-1.1-0.8-2.2-1.7-3.3-2.4c-4.8-3.1-10-5.9-15.4-7.8s-11-4-16.5-2.5c-1,0.3-1.2,1-0.5,1.7S738,567,739.1,566.8L739.1,566.8
		L739.1,566.8z"/>
	<path class="st17" d="M532.1,934.8c-0.1,10.4,1,20.7,2.9,30.9c0.5,2.5,0.9,5,1.5,7.4c0.5,1.8,1.6,3.8,1.5,5.7
		c-0.1,1.6-2,1.8-3.2,2.2c-2.3,0.8-4.7,1.3-6.8,2.5c-4.1,2.2-7.5,5.5-10.8,8.7s-6.8,6.8-9.8,10.5c-6.3,7.5-12,15.6-16.7,24.2
		c-5.4,9.8-9.6,20.3-13.9,30.6c-0.6,1.5,4.1,3,4.8,1.3c3.9-9.2,7.6-18.5,12.2-27.4c4.5-8.7,10-16.9,16.2-24.6
		c3.1-3.8,6.3-7.5,9.8-10.9c3.2-3.2,6.5-6.7,10.4-9.1c2.1-1.3,4.3-2.1,6.7-2.9c1.6-0.5,3.8-0.9,5.1-2s0.9-3.1,0.5-4.5
		c-0.6-2.1-1.3-4.2-1.7-6.4c-2.3-11.5-3.9-23.2-3.8-34.9C537,934.2,532.1,933.3,532.1,934.8L532.1,934.8L532.1,934.8z"/>
	<path class="st17" d="M337.4,1361.6c-2.2-1.5-3.9-3.3-4.6-5.9s-0.7-5.4,0.4-7.9s2.9-4.5,5-6c1.1-0.8,2.2-1.5,3.5-2
		c1-0.4,1.9-0.6,2.4-1.6c0.3-0.5-0.6-1.2-0.9-1.4c-0.7-0.4-1.4-1.8-1.7-2.5c-0.6-1.1-0.9-2.3-1.1-3.5c-0.5-2.8-0.4-5.7,0.2-8.5
		c1.1-5.5,3.6-10.5,5.7-15.6c0.6-1.5-4.1-3-4.8-1.3c-2.3,5.7-5.1,11.2-6,17.3c-0.4,2.9-0.4,6,0.4,8.8c0.7,2.4,2.1,5.6,4.4,6.7
		l-0.9-1.4c-0.1,0.2-1.1,0.4-1.3,0.6c-0.6,0.2-1.1,0.6-1.7,0.9c-1.3,0.7-2.5,1.6-3.6,2.5c-2.2,1.9-4,4.3-4.7,7.1s-0.5,5.9,0.6,8.5
		c1.2,2.9,3.4,4.8,6,6.6c0.8,0.6,2.5,1,3.4,0.4C338.8,1362.9,338.1,1362,337.4,1361.6L337.4,1361.6L337.4,1361.6z"/>
	<path class="st17" d="M36.9,1635.6c1.4,1.4,0.8,3.4,0.8,5.1c-0.1,2.3-0.3,4.6-0.6,6.9c-0.6,4.7-1.5,9.4-2.4,14.1
		c-0.4,2.3-0.8,4.6-1.4,6.9c-0.4,1.6-1,3.2-0.2,4.8c1.6,3.3,6.1,3.9,9.3,4.2c9,0.9,18,2.4,27.1,3.4c9.7,1.1,19.4,1,29.1,1.2
		c5.2,0.1,10.5,0.3,15.7-0.2c5.2-0.5,10.2-1.6,15.2-2.8c1-0.2,1.2-1,0.5-1.7c-0.8-0.8-2.3-1.2-3.4-0.9c-4.2,1-8.4,1.9-12.6,2.5
		c-4.5,0.6-8.9,0.5-13.4,0.4c-9.2-0.1-18.6,0-27.8-0.8c-9-0.8-17.9-2.3-26.8-3.4c-1.7-0.2-3.5-0.3-5.2-0.6c-0.9-0.1-2.2-0.2-2.8-0.9
		c-0.9-1.3,0.2-3.5,0.5-4.9c0.5-2.2,0.9-4.4,1.3-6.7c0.9-5,1.9-10,2.5-15c0.3-2.5,0.3-5,0.6-7.5c0.2-2-0.5-3.6-1.9-5
		c-0.8-0.8-2.3-1.2-3.4-0.9C36.3,1634.1,36.1,1634.9,36.9,1635.6L36.9,1635.6L36.9,1635.6z"/>
	<path class="st17" d="M294.9,944.5c9.3-2.5,19-2.7,28.5-2.4c4.7,0.2,9.5,0.4,14.2,0.7s9.4,0.8,14.1,0.6c0.5,0,1.3-0.2,1.7,0
		c-0.2-0.1,0,0.2,0.1,0.5c0.1,0.5-0.1,1-0.2,1.5c-0.5,2.2-0.7,4.4-0.9,6.6c-0.4,5-0.3,10-0.5,14.9c-0.3,10.1-0.9,20.3-1.1,30.4
		c-0.3,11.3,0.3,22.6,0.5,33.9c0,1.6,4.9,2.6,4.8,0.6c-0.2-10.7-0.8-21.3-0.5-32s0.8-21.4,1.2-32.1c0.2-5.1,0.1-10.3,0.5-15.4
		c0.1-1.3,0.2-2.5,0.4-3.8c0.1-1,0.5-1.9,0.6-2.8c0.2-2.2-1.4-3.6-3.3-4.3c-2.1-0.8-4.2-0.6-6.4-0.5c-2.4,0.1-4.9-0.1-7.3-0.3
		c-5.2-0.4-10.4-0.6-15.5-0.9c-11.3-0.5-22.8-0.6-33.9,2.3c-1,0.3-1.2,1-0.5,1.7S293.9,944.8,294.9,944.5L294.9,944.5L294.9,944.5z"
		/>
	<path class="st17" d="M244.7,804.6c7.5-0.2,15-1.3,22.5-1.7c1.9-0.1,3.7-0.2,5.6-0.1s3.6,0.5,5.4,0.5c2.8,0,5.2-1.6,6.1-4.3
		c0.8-2.3,0.5-4.9,0.5-7.3c0.1-3.6,0-7.2-0.2-10.9c-0.4-7.6-1-15.2-0.9-22.8c0.1-8.6,0.6-17.2,1.4-25.7c0.2-1.8-4.7-2.9-4.8-1.3
		c-1.3,14.7-1.7,29.3-0.8,44c0.4,6.4,0.8,12.9,0.4,19.4c-0.1,2.2-0.5,5.1-2.9,6c-1.2,0.4-2.9-0.1-4.1-0.2c-2-0.2-3.9-0.1-5.9-0.1
		c-8.1,0.3-16.1,1.6-24.2,1.7c-0.8,0-1.9,0.5-1.3,1.4S243.7,804.7,244.7,804.6L244.7,804.6L244.7,804.6z"/>
	<path class="st17" d="M1256.3,1118.3c0.4-1.2,1-2.4,1.6-3.5l-0.2,0.3c0.5-0.8,1-1.6,1.5-2.3c0.6-0.8-0.6-1.7-1.3-1.9
		c-0.6-0.2-1.2-0.4-1.9-0.4c-0.4,0-1,0.1-1.3,0.4c-1.4,1.8-2.5,3.9-3.3,6.1c-0.1,0.4,0.2,0.8,0.5,1c0.4,0.4,1.1,0.7,1.6,0.8
		s1.2,0.2,1.8,0.1C1255.8,1118.8,1256.2,1118.7,1256.3,1118.3L1256.3,1118.3L1256.3,1118.3z"/>
	<path class="st17" d="M1262.4,1121.2c1.5-1.1,2.9-2.4,4.2-3.7c0.3-0.3,0.2-0.7,0-1c-0.3-0.4-0.8-0.8-1.3-0.9
		c-0.6-0.2-1.2-0.4-1.9-0.4c-0.4,0-1,0.1-1.3,0.4c-1.3,1.3-2.7,2.5-4.2,3.7c-0.3,0.2-0.2,0.7,0,1c0.3,0.4,0.8,0.8,1.3,0.9
		c0.6,0.2,1.2,0.4,1.9,0.4l0.5-0.1C1262,1121.5,1262.2,1121.4,1262.4,1121.2L1262.4,1121.2L1262.4,1121.2z"/>
	<path class="st17" d="M1268.9,1128.8c6.2-2.7,12.5-5.1,18.9-7.3c1.1-0.4,0.1-1.5-0.4-1.9c-1-0.6-2.3-0.8-3.4-0.4
		c-6.4,2.3-12.7,4.7-18.9,7.3c-1.1,0.4-0.2,1.5,0.4,1.9C1266.5,1128.9,1267.9,1129.2,1268.9,1128.8L1268.9,1128.8z"/>
	<path class="st17" d="M1273,1234.5c0,3.1-0.3,6.1-0.3,9.2c0,2.2-0.1,4.1,2.2,5.1c0.8,0.4,2.9,0.8,3.4-0.3c0.5-1.3,0.9-2.6,1.6-3.8
		s1.5-2.4,2.4-3.5c1.8-2.2,3.8-4.2,5.8-6.2c4.2-4.1,9.1-6.8,14.8-8.4s11.5-2.1,17.3-1.3s11.7,2.3,16.6,5.2
		c4.9,2.9,8.3,7.5,11.6,12.1c0.7,0.9,2.1,1.3,3.2,1.3c0.8,0,2-0.5,1.3-1.4c-3.3-4.6-6.8-9.1-11.5-12.4c-5.3-3.7-12.1-5.7-18.4-6.9
		c-12.3-2.4-26.7-0.5-36.7,7.7c-2.8,2.3-5.2,4.9-7.6,7.5c-1.1,1.2-2.2,2.6-3,4c-0.9,1.6-1.5,3.2-2.2,4.9l3.4-0.3
		c1.4,0.6,0.9,1.1,0.8,0c0-0.3,0-0.7,0-1c0-0.9,0-1.9,0-2.8c0.1-2.4,0.3-4.7,0.3-7.1C1277.8,1234,1273,1233,1273,1234.5L1273,1234.5
		L1273,1234.5z"/>
	<path class="st17" d="M629.4,600.6c-3-4.8-6.5-9.3-9.5-14.1c-0.6-1-2.1-1.3-3.2-1.3c-0.8,0-1.9,0.5-1.3,1.4c3,4.8,6.5,9.3,9.5,14.1
		c0.6,1,2.1,1.3,3.2,1.3C628.9,602,630,601.6,629.4,600.6L629.4,600.6z"/>
	<path class="st17" d="M637.2,593.3v-5c0-0.2,0-0.4-0.1-0.5c-0.1-0.2-0.2-0.4-0.4-0.5c-0.4-0.4-1.1-0.7-1.6-0.8s-1.2-0.2-1.8-0.1
		l-0.4,0.1c-0.2,0.1-0.4,0.3-0.5,0.5v5c0,0.2,0,0.4,0.1,0.5c0.1,0.2,0.2,0.4,0.4,0.5c0.4,0.4,1.1,0.7,1.6,0.8s1.2,0.2,1.8,0.1
		l0.4-0.1C636.9,593.7,637.1,593.5,637.2,593.3L637.2,593.3z"/>
	<path class="st17" d="M621.8,603.7c-3.9-2-7.4-4.5-11.1-6.9c-0.9-0.6-2.4-1-3.4-0.5s-0.2,1.5,0.4,1.9c3.6,2.4,7.2,4.9,11.1,6.9
		c1,0.5,2.4,1,3.4,0.5C623.1,605.1,622.5,604.1,621.8,603.7L621.8,603.7z"/>
	<path class="st17" d="M1413.2,777.5c-14.5,0.8-28.9,1.8-43.3,2.9c-14.5,1-29,1.7-43.4,2.7c-4.1,0.3-8.1,0.5-12.2,0.8
		s-7.9,0.2-11.9,0.7c-1.1,0.1-1.1,1.1-0.5,1.7c0.9,0.8,2.3,1,3.4,0.9c3.4-0.4,6.9-0.4,10.3-0.6s7.2-0.4,10.7-0.7
		c7.1-0.5,14.3-0.8,21.4-1.2c14.5-0.8,29-1.9,43.4-3c8-0.6,15.9-1,23.9-1.4c0.8,0,1.9-0.4,1.3-1.4
		C1415.9,777.8,1414.2,777.4,1413.2,777.5L1413.2,777.5L1413.2,777.5z"/>
	<path class="st17" d="M1554.3,1096.3c0.1-4.9,0.5-9.8,0.6-14.7s0.2-10.1,0.3-15.1c0.3-9.9,1-19.8,1.7-29.7c0.4-5.5,0.6-11,0.6-16.6
		c0-1.6-4.8-2.6-4.8-0.6c0,9.8-0.9,19.6-1.5,29.4c-0.6,9.9-0.8,19.7-1,29.6c-0.1,5.5-0.5,11-0.6,16.5
		C1549.5,1096.9,1554.3,1097.9,1554.3,1096.3L1554.3,1096.3L1554.3,1096.3z"/>
	<path class="st17" d="M1564.6,1093.9c1.1-11,1.3-22.2,3.1-33.1c0.3-1.8-4.6-2.9-4.8-1.3c-1.8,10.9-2.1,22.1-3.1,33.1
		C1559.6,1094.4,1564.5,1095.5,1564.6,1093.9L1564.6,1093.9z"/>
	<path class="st17" d="M1538.7,1106.9c-10.9,0.2-21.8,0.8-32.8,1.2c-11.1,0.3-22.2,0.6-33.2,0.7c-6.2,0.1-12.5,0.3-18.7,1.1
		c-1.1,0.1-1.1,1.1-0.5,1.7c0.9,0.8,2.3,1.1,3.4,0.9c10.8-1.4,21.7-1,32.5-1.2c10.9-0.2,21.8-0.5,32.8-1c6.1-0.3,12.2-0.5,18.3-0.7
		c0.8,0,1.8-0.5,1.3-1.4S1539.7,1106.9,1538.7,1106.9L1538.7,1106.9L1538.7,1106.9z"/>
	<path class="st17" d="M1101,311.3c0.9,1.5,1.8,3.1,2.5,4.7s1.2,3.2,2.1,4.7c0.8,1.4,0,2.3-0.7,3.5c-0.8,1.7-1.6,3.4-2.6,5
		c-3.8,6.7-7.2,13.5-10.7,20.4s-7.4,13.8-11.2,20.6c-1.8,3.3-3.9,6.5-5.5,9.9c-0.6,1.2-1.1,2.6-0.8,4s1.3,2.6,2.3,3.6
		c5.2,5.2,12.2,8,17.7,12.6c0.9,0.7,2.3,1.2,3.4,0.9c0.9-0.2,1.3-1,0.5-1.7c-5.1-4.2-11.1-7-16.2-11.2c-0.9-0.8-2.1-1.6-2.6-2.8
		c-0.6-1.3,0-2.8,0.6-4c1.7-3.4,3.7-6.6,5.5-9.9c3.8-6.7,7.5-13.4,11-20.2s6.8-13.6,10.6-20.2c1-1.8,1.9-3.5,2.8-5.4
		c0.7-1.5,1.7-2.7,0.9-4.4c-0.3-0.7-0.8-1.4-1.1-2.1c-0.3-0.9-0.7-1.8-1.1-2.6c-0.8-1.9-1.7-3.7-2.8-5.4c-0.6-1-2.1-1.4-3.2-1.3
		C1101.5,310,1100.4,310.4,1101,311.3L1101,311.3L1101,311.3z"/>
	<path class="st17" d="M1173.6,61.5c-2.6-3.6-5.3-7.2-8.7-10.1c-0.8-0.7-2.3-1.2-3.4-0.9c-0.4,0.1-0.8,0.2-0.9,0.7
		c-0.1,0.4,0.2,0.8,0.5,1c0.8,0.7,1.6,1.4,2.3,2.2c0.2,0.2,0.3,0.4,0.5,0.6c0.2,0.2,0,0,0.1,0.1c0.1,0.1,0.2,0.2,0.2,0.2
		c0.3,0.4,0.7,0.8,1,1.2c1.3,1.6,2.6,3.3,3.8,5.1c0.7,0.9,2.1,1.4,3.2,1.3C1173,62.9,1174.3,62.5,1173.6,61.5L1173.6,61.5
		L1173.6,61.5z"/>
	<path class="st17" d="M1187.7,55.3c1-10.4,1.5-20.9,1.4-31.4c0-1.6-4.8-2.6-4.8-0.6c0.1,10.2-0.4,20.5-1.4,30.7
		C1182.7,55.8,1187.5,56.8,1187.7,55.3L1187.7,55.3L1187.7,55.3z"/>
	<path class="st17" d="M1205.7,54.8c1.5-4.7,3.2-9.3,5.1-13.9c0.2-0.4-0.3-0.8-0.5-1c-0.4-0.4-1.1-0.7-1.6-0.8
		c-0.8-0.2-2.3-0.4-2.7,0.6c-1.9,4.6-3.6,9.2-5.1,13.9c-0.3,1,1.4,1.7,2.1,1.8C1203.7,55.5,1205.4,55.8,1205.7,54.8
		C1205.7,54.8,1205.7,54.8,1205.7,54.8z"/>
	<path class="st17" d="M1379.3,170.5c2.7-2.2,5.8-4.1,8.3-6.5c0.3-0.3,0.2-0.7,0-1c-0.3-0.4-0.8-0.8-1.3-0.9
		c-0.9-0.4-2.4-0.7-3.2,0.1c-2.6,2.4-5.6,4.3-8.3,6.5c-0.3,0.2-0.2,0.7,0,1c0.3,0.4,0.8,0.8,1.3,0.9
		C1377.1,170.9,1378.4,171.2,1379.3,170.5L1379.3,170.5z"/>
	<path class="st17" d="M1379.4,184.3c8.7,0.2,17.2-2.6,25.8-1.9c0.7,0.1,2.2,0.1,2.1-1c-0.1-1-2-1.6-2.7-1.6c-9.1-0.8-17.9,2-27,1.8
		c-0.8,0-1.8,0.5-1.3,1.4C1376.8,184,1378.4,184.3,1379.4,184.3L1379.4,184.3L1379.4,184.3z"/>
	<path class="st17" d="M1388.5,204.7c2.7,0.4,5.4,0.8,8.1,1.3c2.4,0.4,5.1,1.3,7.7,1.5c0.7,0.1,2.3,0,2.1-1c-0.2-1-1.9-1.6-2.7-1.6
		c-1.3-0.1-2-0.3-3.3-0.6c-1.4-0.3-2.9-0.6-4.4-0.9c-2.7-0.5-5.4-0.9-8.1-1.3c-0.7-0.1-2.3,0-2.1,1S1387.7,204.6,1388.5,204.7
		L1388.5,204.7L1388.5,204.7z"/>
	<path class="st17" d="M764.7,160.7c-4.5,1-8.9,2.6-13.2,4.4s-8.8,3.7-13,5.8s-8.4,4.1-12.7,6s-8.4,4.1-12.5,6.4
		c-2.3,1.3-4.7,2.4-7.1,3.7c-1.8,0.9-4,2-5.1,3.7c-0.5,0.7,0.2,1.3,0.7,1.7c0.8,0.4,1.3,1.4,1.8,2.1c0.6,0.8,1.3,1.6,2,2.3
		s1.4,1.5,2.2,2.2c0.5,0.4,0.9,0.8,1.5,1.2c0.2,0.2,0.7,0.4,0.9,0.6l0.3-1.2c-13.7,8.4-26.5,18.2-39,28.3c-3.6,2.9-7.1,5.9-10.5,9
		c-1.3,1.2,3.2,3.1,4.5,1.9c5.8-5.4,12-10.3,18.2-15.1s12.5-9.8,19.1-14.3c3.8-2.6,7.7-5.1,11.5-7.4c0.5-0.3,0.7-0.7,0.3-1.2
		c-0.7-0.9-1.6-1.3-2.4-2c-1-0.8-1.8-1.8-2.7-2.7c-1.6-1.7-2.7-3.9-4.7-5.1l0.7,1.7c1-1.5,2.8-2.3,4.3-3.1c2-1.1,4.1-2,6.1-3.1
		c4-2.2,8-4.6,12.3-6.4s8.2-3.6,12.2-5.6s8.5-4.1,12.8-5.9c4.7-2,9.5-3.8,14.5-5c1-0.2,1.2-1,0.5-1.7
		C767.3,160.9,765.8,160.5,764.7,160.7L764.7,160.7L764.7,160.7z"/>
	<path class="st17" d="M645.9,384.1c1.2,0,2.5-0.2,3.7-0.4c0.2,0,0.5,0,0.7,0c0.5,0,0.2-0.2-1-0.5c-0.8-0.7-1.2-0.9-1.1-0.3
		c-0.1,0.5,0.1,1.4,0.2,2c0.1,2.7,0,5.3,0.3,8c0.7,5.4,2,10.8,3,16.2c0.3,1.6,5.2,2.5,4.8,0.6c-1.2-6.4-3.1-12.8-3.3-19.3
		c-0.1-1.6,0-3.1,0-4.7c0-1.2,0.1-2.6-0.9-3.5c-2.3-2.1-5.7-0.8-8.4-0.8c-0.8,0-1.8,0.5-1.3,1.4S644.9,384.2,645.9,384.1
		L645.9,384.1L645.9,384.1z"/>
	<path class="st17" d="M493.9,497.3c0.5,3,1.1,5.9,1.4,8.9c0,0.4,0.6,0.8,0.9,1c0.5,0.3,1.2,0.6,1.8,0.6c0.8,0.1,2.2,0,2.1-1
		c-0.2-3-0.9-6-1.4-8.9c-0.1-0.4-0.6-0.8-0.9-1c-0.5-0.3-1.2-0.6-1.8-0.6C495.3,496.2,493.7,496.2,493.9,497.3L493.9,497.3z"/>
	<path class="st17" d="M511.1,494c0.7,0.2,1.3,0.4,2,0.6c0.4,0.1,0.7,0.2,1.1,0.3c0.2,0,0.3,0.1,0.5,0.2c0,0,0.2,0.1,0.2,0.1
		c-0.1,0-0.6-0.2-0.2-0.1c0.3,0.1,0.7,0.2,1,0.4c0.2,0.1,0.3,0.1,0.5,0.2c0.1,0,0.2,0.1,0.3,0.1c0.3,0.1-0.1-0.1-0.2-0.1
		c0.3,0.1,0.6,0.3,0.9,0.5c0.1,0.1,0.2,0.1,0.3,0.2c0.1,0,0.3,0.2,0,0s0,0,0,0c0.1,0.1,0.2,0.1,0.2,0.2c0.5,0.4,1,0.7,1.6,0.8
		c0.5,0.1,1.2,0.2,1.8,0.1c0.3-0.1,0.9-0.2,0.9-0.7s-0.2-0.8-0.5-1c-2.8-2.4-6.4-3.2-9.9-4.2c-0.5-0.2-1.2-0.2-1.8-0.1
		c-0.3,0.1-0.9,0.3-0.9,0.7C508.8,493.2,510.3,493.8,511.1,494L511.1,494L511.1,494z"/>
	<path class="st17" d="M523,474.7c3.7-2,7.3-4.1,11-6.2c1-0.5,0.3-1.5-0.4-1.9c-0.9-0.5-2.4-1-3.4-0.5c-3.7,2-7.3,4.2-11,6.2
		c-1,0.5-0.3,1.5,0.4,1.9C520.4,474.7,522,475.2,523,474.7L523,474.7z"/>
	<path class="st17" d="M498.6,1634c4.3,3.2,9.1,5.8,14,7.8c2.5,1,5.1,2,7.8,2.5c1.3,0.2,2.6,0.3,4,0.4c1.4,0.2,2.8,0.5,4.3,0.6
		l-2.4-2.7c-1.8,0.3-3.2,1.8-4.6,2.9c-1.8,1.3-3.5,2.7-5.2,4.1c-3.1,2.4-6,5-8.7,7.8c-5.5,5.6-10.2,11.9-14.2,18.6
		c-1,1.7,3.7,3.3,4.5,1.9c3.8-6.5,8.4-12.6,13.6-18c2.6-2.7,5.3-5.2,8.2-7.6c1.6-1.3,3.2-2.6,4.8-3.8c0.9-0.7,1.8-1.3,2.6-2
		c0.6-0.4,1.2-1.2,2-1.3c0.9-0.2,1.2-0.8,0.6-1.5c-0.7-0.8-2-1.1-3-1.2s-2.2-0.4-3.3-0.5c-1.2-0.1-2.3-0.2-3.5-0.4
		c-2.1-0.4-4.2-1.3-6.2-2.2c-4.3-1.8-8.4-4.2-12.1-6.9c-0.8-0.6-2.5-1-3.4-0.4C497.2,1632.7,498,1633.5,498.6,1634L498.6,1634
		L498.6,1634z"/>
	<path class="st17" d="M845.4,1339.6c2.3-2.9,4.8-5.7,7.4-8.4c0.8-0.8-0.7-1.7-1.3-1.9s-1.2-0.4-1.9-0.4c-0.5,0-1,0.1-1.3,0.4
		c-2.6,2.7-5.1,5.5-7.4,8.4c-0.7,0.8,0.6,1.7,1.3,1.9c0.6,0.2,1.2,0.4,1.9,0.4C844.5,1340,845.1,1339.9,845.4,1339.6L845.4,1339.6z"
		/>
	<path class="st17" d="M852.4,1344.6c1.5-0.6,3.1-1.3,4.6-1.9c0.8-0.3,1.5-0.6,2.3-0.9c0.4-0.2,0.8-0.3,1.2-0.4
		c0.2-0.1,0.3-0.1,0.5-0.2c0.1,0,0.7-0.2,0.4-0.1c0.3-0.1,0.8-0.2,0.9-0.7c0.1-0.4-0.2-0.8-0.5-1c-0.5-0.4-1-0.7-1.6-0.8
		s-1.2-0.3-1.8-0.1c-3.4,1.1-6.6,2.5-9.9,3.8c-1.1,0.4-0.2,1.5,0.4,1.9C850,1344.7,851.3,1345,852.4,1344.6L852.4,1344.6
		L852.4,1344.6z"/>
	<path class="st17" d="M859.8,1354.8c5.8-0.1,11.6-0.8,17.4-1.1c0.8,0,1.9-0.5,1.3-1.4s-2.2-1.4-3.2-1.3c-5.8,0.2-11.6,0.9-17.4,1.1
		c-0.8,0-1.9,0.5-1.3,1.4S858.8,1354.8,859.8,1354.8L859.8,1354.8z"/>
	<path class="st17" d="M704.3,1345.4c-2.4-3.2-4.9-6.4-7.7-9.3c-0.4-0.4-1.1-0.7-1.6-0.8c-0.5-0.1-1.2-0.2-1.8-0.1
		c-0.4,0.1-0.8,0.2-0.9,0.7s0.2,0.8,0.5,1c0.2,0.2,0.3,0.3,0.5,0.5c0.1,0.1,0.2,0.2,0.3,0.3c0,0,0.2,0.3,0.1,0.1s0.1,0.1,0.1,0.1
		c0.1,0.1,0.2,0.2,0.2,0.2c0.2,0.2,0.3,0.4,0.5,0.6c0.6,0.7,1.2,1.4,1.8,2.2c1.2,1.5,2.4,3,3.5,4.5c0.7,0.9,2.1,1.4,3.2,1.3
		c0.4,0,1-0.1,1.3-0.4C704.6,1346.1,704.5,1345.7,704.3,1345.4L704.3,1345.4L704.3,1345.4z"/>
	<path class="st17" d="M710.8,1338.4c-0.3-1.4-0.5-2.8-0.5-4.2c-0.1-0.2-0.2-0.4-0.3-0.5c-0.2-0.2-0.4-0.4-0.6-0.5
		c-0.5-0.3-1.2-0.6-1.8-0.6c-0.5-0.1-1.1-0.1-1.6,0.2l-0.3,0.2c-0.2,0.2-0.2,0.4-0.2,0.6c0,1.4,0.2,2.8,0.5,4.2
		c0.1,0.4,0.6,0.8,0.9,1c0.5,0.3,1.2,0.6,1.8,0.6c0.5,0.1,1.1,0.1,1.6-0.2C710.6,1339.1,710.9,1338.8,710.8,1338.4L710.8,1338.4
		L710.8,1338.4z"/>
	<path class="st17" d="M695.3,1350.5c-3.5,0.9-7,1.8-10.5,2.6c-0.3,0.1-0.8,0.3-0.9,0.7s0.2,0.8,0.5,1c0.9,0.7,2.3,1.2,3.4,0.9
		c3.5-0.8,7-1.7,10.5-2.6c0.3-0.1,0.8-0.3,0.9-0.7s-0.2-0.8-0.5-1C697.9,1350.7,696.4,1350.2,695.3,1350.5L695.3,1350.5z"/>
</g>
</svg>
