<svg width="75" height="75" viewBox="0 0 75 75" fill="none" xmlns="http://www.w3.org/2000/svg">
<g clip-path="url(#clip0_22_15)">
<rect width="75" height="75" fill="white"/>
<g clip-path="url(#clip1_22_15)">
<path fill-rule="evenodd" clip-rule="evenodd" d="M43.3784 51.8804C50.6865 51.0176 58.4575 48.3604 58.4575 35.7393C58.4575 32.1519 57.1948 29.228 55.1367 26.9692C55.4692 26.1064 56.5313 22.8516 54.7368 18.334C54.7368 18.334 52.0796 17.4697 45.8364 21.6548C43.1792 20.9253 40.2568 20.4595 37.5337 20.4595C34.8105 20.4595 31.8193 20.9253 29.228 21.6548C22.9175 17.4697 20.2603 18.334 20.2603 18.334C18.4673 22.8501 19.5308 26.1064 19.8618 26.9692C17.8022 29.228 16.5396 32.1519 16.5396 35.7393C16.5396 48.3604 24.312 51.0176 31.6187 51.8804C30.6899 52.6787 29.8257 54.2051 29.4932 56.332C27.6328 57.1289 22.7827 58.6567 19.8604 53.6089C19.8604 53.6089 18.1333 50.4873 14.8784 50.2881C14.8784 50.2881 11.6235 50.2222 14.6133 52.2788C14.6133 52.2788 16.8047 53.2764 18.2666 57.0615C18.2666 57.0615 20.2588 63.3735 29.4258 61.3799V67.0254C29.4258 67.8911 28.7622 68.8857 27.1011 68.6206C14.0801 64.3022 4.71387 51.9463 4.71387 37.4648C4.71387 19.3286 19.3945 4.64941 37.5308 4.64941C55.667 4.64941 70.3462 19.3301 70.2803 37.4648C70.2803 51.9463 60.9126 64.2349 47.8931 68.6206C46.2319 68.9531 45.5684 67.957 45.5684 67.0254V57.9258C45.5684 54.8687 44.5708 52.8765 43.3755 51.8789L43.3784 51.8804ZM75 37.5337C75 16.8062 58.1924 0 37.5337 0C16.875 0 0 16.8062 0 37.5337C0 58.2612 16.8062 75 37.5337 75C58.2612 75 75 58.1924 75 37.5337Z" fill="#261817"/>
</g>
</g>
<defs>
<clipPath id="clip0_22_15">
<rect width="75" height="75" fill="white"/>
</clipPath>
<clipPath id="clip1_22_15">
<rect width="75" height="75" fill="white"/>
</clipPath>
</defs>
</svg>
