<svg width="75" height="75" viewBox="0 0 75 75" fill="none" xmlns="http://www.w3.org/2000/svg">
<g clip-path="url(#clip0_22_2)">
<rect width="75" height="75" fill="white"/>
<g clip-path="url(#clip1_22_2)">
<path fill-rule="evenodd" clip-rule="evenodd" d="M37.5337 75C58.1265 75 75 58.1265 75 37.5337C75 16.9409 58.1265 0 37.5337 0C16.9409 0 0 16.8721 0 37.5337C0 58.1953 16.8721 75 37.5337 75Z" fill="#261817"/>
<path fill-rule="evenodd" clip-rule="evenodd" d="M25.7754 58.5908H18.7339V25.7754H25.7754V58.5908ZM48.2285 25.7754C54.4717 25.7754 58.5908 29.4272 58.5908 37.5337V58.5908H51.5493V39.8569C51.5493 35.3408 49.8896 32.8169 46.0356 32.8169C42.1816 32.8169 37.5337 36.0718 37.5337 39.8569V58.5908H30.4907V25.7754H37.5337V30.4907C39.8569 28.0986 43.3125 25.7754 48.2285 25.7754ZM22.2539 11.6909C24.8452 11.6909 26.9707 13.8164 26.9707 16.4077C26.9707 18.999 24.8452 21.0586 22.2539 21.0586C19.6626 21.0586 17.5371 18.999 17.5371 16.4077C17.5371 13.8164 19.6626 11.6909 22.2539 11.6909Z" fill="#FFFBDB"/>
</g>
</g>
<defs>
<clipPath id="clip0_22_2">
<rect width="75" height="75" fill="white"/>
</clipPath>
<clipPath id="clip1_22_2">
<rect width="75" height="75" fill="white"/>
</clipPath>
</defs>
</svg>
